<svg xmlns="http://www.w3.org/2000/svg" xmlns:svg="http://www.w3.org/2000/svg" id="svg3540" width="48" height="48" fill="#FFF" version="1.1" viewBox="0 0 24 24"><metadata id="metadata3546"/><path id="path3536" fill="none" d="M0 0h24v24H0z"/><path id="path3538" d="m 3,15 h 9.5 V 13 H 3 Z M 3,11 H 16.5 V 9 H 3 Z M 3,5 V 7 H 21 V 5 Z" style="fill:#ececec"/><path style="fill:#fff;stroke-width:.39650983" id="path3604" d="m 17.665132,10.903138 c -0.252436,-0.9463202 0.19152,-1.9392653 1.046188,-2.5228213 1.083891,-0.7400669 2.566201,-0.4606434 3.306267,0.6232497 0.740067,1.0838906 0.460642,2.5662006 -0.623249,3.3062676 -0.85467,0.583556 -1.955016,0.533056 -2.744486,-0.04658 l -2.810662,1.919084 0.946488,1.386215 -1.386215,0.946489 -0.946489,-1.386216 -0.462072,0.315496 -0.946489,-1.386215 z M 20.5,11 C 20.860206,10.754056 20.953692,10.258116 20.707751,9.8979095 20.461808,9.5377044 19.965868,9.4442175 19.605662,9.69016 19.245457,9.9361026 19.151971,10.432042 19.397913,10.792247 19.643854,11.152456 20.139795,11.245943 20.5,11 Z"/></svg>